<svg width="214" height="170" viewBox="0 0 214 170" fill="none" xmlns="http://www.w3.org/2000/svg">
<g id="OTAS Logo">
<g id="Vector" filter="url(#filter0_d_74_385)">
<mask id="path-1-outside-1_74_385" maskUnits="userSpaceOnUse" x="5" y="5" width="204" height="160" fill="black">
<rect fill="white" x="5" y="5" width="204" height="160"/>
<path d="M37.4331 75.3248V114.013C37.4331 122.461 34.1315 124.484 27.5283 120.082L16.9047 112.999C10.3016 108.597 7 102.172 7 93.7241V55.0361C7 46.5881 10.3016 44.5652 16.9047 48.9673L27.5283 56.0497C34.1315 60.4518 37.4331 66.8768 37.4331 75.3248ZM26.2503 108.094V66.2376C26.2503 65.7257 26.0906 65.1712 25.7711 64.5741C25.5048 64.0126 25.1587 63.5899 24.7327 63.3059L19.7004 59.951C19.2744 59.667 18.9016 59.6105 18.5821 59.7815C18.3159 59.988 18.1828 60.3473 18.1828 60.8593V102.715C18.1828 103.227 18.3159 103.764 18.5821 104.326C18.9016 104.923 19.2744 105.363 19.7004 105.647L24.7327 109.002C25.1587 109.286 25.5048 109.325 25.7711 109.118C26.0906 108.947 26.2503 108.606 26.2503 108.094Z"/>
<path d="M95.3536 98.3305V109.179L80.4965 99.2738V155.434L69.3138 147.979V91.8186L54.4567 81.9139V71.0659L95.3536 98.3305Z"/>
<path d="M144.477 122.285L122.271 137.089L118.597 152.306L106.855 160.134L126.904 79.6642L139.924 70.9842L159.973 124.722L148.152 132.603L144.477 122.285ZM141.442 113.556L133.374 90.9028L125.307 124.313L141.442 113.556Z"/>
<path d="M186.414 105.705C182.526 108.297 179.03 109.84 175.923 110.335C172.87 110.794 170.472 110.124 168.728 108.324C166.984 106.524 166.131 103.594 166.169 99.5342L178.151 91.5465C178.249 94.1913 179 95.8343 180.402 96.4754C181.858 97.0809 183.863 96.5317 186.419 94.8277C189.029 93.0881 191.095 90.9855 192.619 88.5199C194.144 85.9902 194.934 83.5097 194.988 81.0783C195.032 79.0948 194.562 77.8005 193.579 77.1953C192.595 76.5901 191.339 76.4504 189.811 76.7761C188.337 77.0023 186.279 77.555 183.636 78.4343C180.043 79.5687 177.116 80.2913 174.853 80.6021C172.645 80.8135 170.743 80.2217 169.148 78.8269C167.607 77.3325 166.884 74.4739 166.977 70.2509C167.066 66.2839 167.968 62.2785 169.684 58.2347C171.4 54.1909 173.766 50.4071 176.782 46.8835C179.8 43.2958 183.226 40.224 187.06 37.6679C192.811 33.8338 197.433 32.4231 200.925 33.4357C204.473 34.3488 206.366 37.6884 206.605 43.4544L194.304 51.6551C194.248 49.4226 193.465 48.0854 191.953 47.6433C190.497 47.1017 188.517 47.6651 186.014 49.3337C183.831 50.7892 182.058 52.6326 180.697 54.8638C179.389 57.0594 178.707 59.437 178.65 61.9963C178.61 63.7879 179.056 64.972 179.988 65.5487C180.974 66.0259 182.177 66.1691 183.598 65.9784C185.073 65.6882 187.132 65.1355 189.773 64.3202C193.366 63.1859 196.293 62.4952 198.554 62.2484C200.815 62.0015 202.743 62.6075 204.337 64.0664C205.931 65.5252 206.681 68.3341 206.589 72.4931C206.509 76.0762 205.663 79.9182 204.051 84.0189C202.438 88.1197 200.12 92.0919 197.097 95.9355C194.075 99.7151 190.514 102.972 186.414 105.705Z"/>
<path d="M49.8908 33.3714L51.5269 34.5183L47.4894 37.6831L61.2629 47.339L59.3292 48.8548L45.5557 39.1989L41.497 42.3803L39.861 41.2334L49.8908 33.3714Z"/>
<path d="M71.7836 29.4078C72.1668 29.6765 72.5509 29.9773 72.9358 30.3103L63.6284 37.6059C64.8931 38.3873 66.2186 38.7381 67.6049 38.6582C68.9906 38.5568 70.1935 38.1064 71.2135 37.3069C72.0493 36.6517 72.5445 35.9681 72.699 35.256C72.853 34.5225 72.7043 33.8293 72.253 33.1763L74.3355 31.5439C75.1882 32.6045 75.5155 33.7596 75.3175 35.0091C75.1047 36.2483 74.3042 37.412 72.9158 38.5003C71.8108 39.3664 70.5613 39.9629 69.1671 40.2898C67.7871 40.6055 66.3775 40.627 64.9384 40.3544C63.4845 40.0714 62.1312 39.4908 60.8784 38.6125C59.6256 37.7342 58.7683 36.7757 58.3067 35.7368C57.8451 34.698 57.7958 33.6642 58.1588 32.6355C58.5213 31.5854 59.2692 30.6162 60.4025 29.7278C61.5075 28.8617 62.7355 28.2711 64.0867 27.9561C65.4378 27.6412 66.7822 27.616 68.1198 27.8806C69.4569 28.1238 70.6782 28.6329 71.7836 29.4078ZM69.366 30.6791C68.5996 30.1418 67.7808 29.8097 66.9097 29.6828C66.0237 29.5455 65.1574 29.6009 64.3107 29.8487C63.4635 30.0751 62.6998 30.4549 62.0198 30.9879C61.0424 31.7541 60.5308 32.6366 60.4851 33.6353C60.4537 34.623 60.9632 35.5586 62.0136 36.4423L69.366 30.6791Z"/>
<path d="M74.0557 28.2834C72.8029 27.4051 71.9531 26.4517 71.5062 25.4232C71.0445 24.3843 70.9808 23.351 71.3149 22.3231C71.6632 21.284 72.3899 20.3314 73.4948 19.4653C74.9257 18.3437 76.4626 17.6752 78.1056 17.4597C79.7628 17.2331 81.3813 17.4527 82.9611 18.1185L80.8786 19.7508C79.9433 19.3896 78.9716 19.2869 77.9633 19.4425C76.9692 19.587 76.0472 19.9925 75.1972 20.6587C74.0922 21.5249 73.5977 22.5034 73.7136 23.5944C73.8147 24.6751 74.5875 25.7217 76.0319 26.7343C77.4911 27.7572 78.9586 28.2812 80.4345 28.3061C81.9104 28.3311 83.2008 27.9105 84.3058 27.0443C85.1558 26.3781 85.6578 25.6782 85.8118 24.9447C85.9657 24.2112 85.7658 23.4925 85.2118 22.7886L87.2943 21.1563C88.2207 22.2685 88.5923 23.4546 88.409 24.7144C88.2109 25.964 87.4107 27.1384 86.0082 28.2378C84.9032 29.1039 83.6607 29.6949 82.2807 30.0106C80.9148 30.3152 79.5194 30.3257 78.0945 30.0419C76.6695 29.7582 75.3233 29.172 74.0557 28.2834Z"/>
<path d="M87.209 8.6825C88.0874 7.99402 89.0797 7.51166 90.1859 7.23541C91.2775 6.94884 92.4122 6.9239 93.59 7.16061C94.782 7.38621 95.938 7.89166 97.0582 8.67694L104.199 13.6831L102.287 15.1822L95.4331 10.3775C94.2245 9.53026 93.0129 9.11211 91.7983 9.12309C90.569 9.12373 89.4514 9.51826 88.4456 10.3067C87.4256 11.1062 86.9427 11.9772 86.9968 12.9197C87.065 13.851 87.7329 14.761 89.0005 15.6496L95.6993 20.3458L93.7656 21.8616L77.4054 10.3923L79.3391 8.87654L85.3084 13.0613C85.0718 12.3275 85.117 11.5808 85.4438 10.8212C85.7848 10.0506 86.3732 9.33766 87.209 8.6825Z"/>
<path d="M99.5201 74.7272C98.5426 75.4934 97.4874 76.0579 96.3545 76.4207C95.221 76.762 94.1178 76.8826 93.0449 76.7825C91.9572 76.6721 90.9863 76.328 90.132 75.7502L92.1932 74.1345C92.9862 74.5852 93.8812 74.792 94.8782 74.7546C95.8746 74.6958 96.8544 74.2889 97.8177 73.5338C98.7385 72.812 99.2252 72.0803 99.2777 71.3388C99.3297 70.5759 98.9798 69.9309 98.2281 69.4039C97.6386 68.9906 97.0037 68.777 96.3236 68.7629C95.6434 68.7489 94.9738 68.858 94.3147 69.0901C93.6556 69.3222 92.8189 69.6717 91.8045 70.1386C90.5617 70.7188 89.5101 71.1491 88.6498 71.4295C87.8037 71.6988 86.8881 71.8037 85.903 71.7442C84.9174 71.6633 83.9456 71.287 82.9875 70.6153C82.1474 70.0264 81.6085 69.3436 81.3708 68.5669C81.1331 67.7902 81.2058 66.9892 81.5887 66.1638C81.9858 65.3272 82.666 64.5314 83.6293 63.7763C85.0176 62.6881 86.5121 62.0529 88.1126 61.8707C89.7273 61.6774 91.1882 61.9548 92.4954 62.7029L90.3704 64.3686C89.71 64.0108 88.8967 63.8824 87.9304 63.9833C86.9493 64.0738 86.0267 64.4578 85.1625 65.1351C84.355 65.7681 83.9174 66.4395 83.8495 67.1492C83.767 67.8486 84.1163 68.4721 84.8974 69.0198C85.4575 69.4124 86.0632 69.6161 86.7144 69.6309C87.3798 69.6346 88.0279 69.5315 88.6586 69.3216C89.2888 69.0902 90.1256 68.7407 91.1689 68.2731C92.4264 67.7032 93.4927 67.2832 94.3678 67.0132C95.228 66.7328 96.1581 66.6275 97.1579 66.6973C98.143 66.7568 99.1219 67.1276 100.095 67.8095C100.846 68.3365 101.363 68.9824 101.643 69.7472C101.924 70.512 101.895 71.3333 101.557 72.2111C101.219 73.089 100.54 73.9277 99.5201 74.7272Z"/>
<path d="M112.419 64.6823C111.328 65.5373 110.078 66.1338 108.67 66.4718C107.276 66.7986 105.852 66.8313 104.399 66.5697C102.945 66.2868 101.591 65.7061 100.339 64.8279C99.1005 63.9599 98.2649 62.9954 97.8316 61.9343C97.3977 60.8519 97.3764 59.7852 97.7678 58.7343C98.1444 57.673 98.8853 56.7093 99.9902 55.8432C101.095 54.977 102.352 54.375 103.76 54.0371C105.154 53.6888 106.577 53.6454 108.031 53.9069C109.498 54.1574 110.858 54.7217 112.111 55.6C113.364 56.4783 114.2 57.4642 114.62 58.5578C115.039 59.63 115.053 60.7022 114.662 61.7746C114.271 62.8469 113.524 63.8161 112.419 64.6823ZM110.65 63.4424C111.344 62.8982 111.826 62.2686 112.096 61.5535C112.367 60.8383 112.347 60.0987 112.037 59.3347C111.742 58.5596 111.108 57.831 110.135 57.1491C109.162 56.4671 108.152 56.0329 107.106 55.8463C106.06 55.6597 105.077 55.6859 104.158 55.925C103.224 56.1537 102.41 56.5402 101.716 57.0843C101.007 57.6395 100.525 58.2691 100.269 58.9732C100.012 59.6558 100.046 60.3735 100.37 61.1265C100.694 61.8794 101.342 62.5968 102.315 63.2788C103.302 63.9711 104.305 64.4216 105.323 64.6304C106.355 64.8281 107.331 64.8181 108.251 64.6005C109.156 64.3725 109.956 63.9865 110.65 63.4424Z"/>
<path d="M106.307 44.8842L122.667 56.3535L120.733 57.8693L104.373 46.4L106.307 44.8842Z"/>
<path d="M124.175 37.1815L136.29 45.675L134.356 47.1907L132.566 45.9353C132.816 46.658 132.786 47.4043 132.474 48.1742C132.161 48.9227 131.608 49.6078 130.815 50.2297C129.908 50.9404 128.902 51.4445 127.796 51.7422C126.676 52.0296 125.512 52.066 124.306 51.8515C123.114 51.6259 121.958 51.1204 120.838 50.3352L113.741 45.36L115.654 43.8609L122.485 48.6501C123.679 49.487 124.89 49.9052 126.12 49.9045C127.334 49.8935 128.445 49.4938 129.45 48.7054C130.485 47.8948 130.968 47.0238 130.899 46.0924C130.831 45.1611 130.163 44.2511 128.896 43.3625L122.241 38.6973L124.175 37.1815Z"/>
<path d="M131.457 33.9357L138.598 38.9419C139.187 39.3552 139.728 39.5553 140.219 39.5422C140.696 39.5188 141.231 39.2738 141.826 38.8074L143.25 37.6914L144.953 38.8849L143.21 40.2507C142.133 41.0947 141.068 41.5468 140.014 41.6071C138.96 41.6675 137.843 41.2843 136.664 40.4577L129.523 35.4515L128.014 36.6341L126.356 35.4717L127.865 34.2891L124.814 32.1502L126.747 30.6344L129.798 32.7733L132.837 30.3914L134.495 31.5538L131.457 33.9357Z"/>
<path d="M134.211 26.3926C133.843 26.6813 133.399 26.8326 132.878 26.8465C132.358 26.8604 131.906 26.733 131.523 26.4643C131.14 26.1957 130.943 25.8684 130.933 25.4826C130.922 25.0967 131.101 24.7594 131.47 24.4707C131.824 24.1931 132.254 24.0529 132.76 24.0501C133.28 24.0362 133.732 24.1636 134.115 24.4322C134.499 24.7009 134.695 25.0281 134.706 25.414C134.73 25.7888 134.565 26.115 134.211 26.3926ZM137.114 27.0391L149.229 35.5326L147.295 37.0483L135.18 28.5548L137.114 27.0391Z"/>
<path d="M157.803 29.1077C156.712 29.9628 155.462 30.5593 154.054 30.8972C152.66 31.224 151.236 31.2567 149.783 30.9952C148.329 30.7122 146.975 30.1316 145.723 29.2533C144.485 28.3853 143.649 27.4208 143.216 26.3598C142.782 25.2773 142.76 24.2106 143.152 23.1597C143.528 22.0985 144.269 21.1348 145.374 20.2686C146.479 19.4025 147.736 18.8004 149.144 18.4625C150.538 18.1142 151.961 18.0709 153.415 18.3324C154.882 18.5828 156.242 19.1472 157.495 20.0254C158.748 20.9037 159.584 21.8897 160.004 22.9833C160.423 24.0554 160.437 25.1277 160.046 26.2C159.655 27.2723 158.908 28.2416 157.803 29.1077ZM156.034 27.8678C156.728 27.3237 157.21 26.6941 157.48 25.9789C157.751 25.2638 157.731 24.5242 157.421 23.7602C157.126 22.985 156.492 22.2565 155.519 21.5745C154.546 20.8926 153.536 20.4583 152.49 20.2717C151.444 20.0851 150.461 20.1114 149.542 20.3504C148.608 20.5792 147.794 20.9656 147.1 21.5097C146.391 22.0649 145.909 22.6946 145.653 23.3986C145.396 24.0812 145.43 24.799 145.754 25.5519C146.078 26.3048 146.726 27.0223 147.699 27.7042C148.686 28.3965 149.689 28.8471 150.707 29.0558C151.739 29.2535 152.715 29.2436 153.635 29.0259C154.54 28.798 155.34 28.4119 156.034 27.8678Z"/>
<path d="M159.454 9.1989C160.871 8.08845 162.468 7.50413 164.246 7.44595C166.008 7.37743 167.73 7.93214 169.41 9.11007L176.551 14.1163L174.638 15.6154L167.785 10.8107C166.576 9.96338 165.365 9.54523 164.15 9.55621C162.921 9.55685 161.803 9.95139 160.797 10.7398C159.777 11.5393 159.294 12.4103 159.348 13.3528C159.417 14.2842 160.085 15.1941 161.352 16.0828L168.051 20.779L166.117 22.2947L154.002 13.8012L155.936 12.2855L157.66 13.4944C157.424 12.7606 157.462 12.0195 157.774 11.271C158.101 10.5115 158.661 9.82076 159.454 9.1989Z"/>
</mask>
<path d="M37.4331 75.3248V114.013C37.4331 122.461 34.1315 124.484 27.5283 120.082L16.9047 112.999C10.3016 108.597 7 102.172 7 93.7241V55.0361C7 46.5881 10.3016 44.5652 16.9047 48.9673L27.5283 56.0497C34.1315 60.4518 37.4331 66.8768 37.4331 75.3248ZM26.2503 108.094V66.2376C26.2503 65.7257 26.0906 65.1712 25.7711 64.5741C25.5048 64.0126 25.1587 63.5899 24.7327 63.3059L19.7004 59.951C19.2744 59.667 18.9016 59.6105 18.5821 59.7815C18.3159 59.988 18.1828 60.3473 18.1828 60.8593V102.715C18.1828 103.227 18.3159 103.764 18.5821 104.326C18.9016 104.923 19.2744 105.363 19.7004 105.647L24.7327 109.002C25.1587 109.286 25.5048 109.325 25.7711 109.118C26.0906 108.947 26.2503 108.606 26.2503 108.094Z" fill="#FF6B6B" fill-opacity="0.8"/>
<path d="M95.3536 98.3305V109.179L80.4965 99.2738V155.434L69.3138 147.979V91.8186L54.4567 81.9139V71.0659L95.3536 98.3305Z" fill="#FF6B6B" fill-opacity="0.8"/>
<path d="M144.477 122.285L122.271 137.089L118.597 152.306L106.855 160.134L126.904 79.6642L139.924 70.9842L159.973 124.722L148.152 132.603L144.477 122.285ZM141.442 113.556L133.374 90.9028L125.307 124.313L141.442 113.556Z" fill="#FF6B6B" fill-opacity="0.8"/>
<path d="M186.414 105.705C182.526 108.297 179.03 109.84 175.923 110.335C172.87 110.794 170.472 110.124 168.728 108.324C166.984 106.524 166.131 103.594 166.169 99.5342L178.151 91.5465C178.249 94.1913 179 95.8343 180.402 96.4754C181.858 97.0809 183.863 96.5317 186.419 94.8277C189.029 93.0881 191.095 90.9855 192.619 88.5199C194.144 85.9902 194.934 83.5097 194.988 81.0783C195.032 79.0948 194.562 77.8005 193.579 77.1953C192.595 76.5901 191.339 76.4504 189.811 76.7761C188.337 77.0023 186.279 77.555 183.636 78.4343C180.043 79.5687 177.116 80.2913 174.853 80.6021C172.645 80.8135 170.743 80.2217 169.148 78.8269C167.607 77.3325 166.884 74.4739 166.977 70.2509C167.066 66.2839 167.968 62.2785 169.684 58.2347C171.4 54.1909 173.766 50.4071 176.782 46.8835C179.8 43.2958 183.226 40.224 187.06 37.6679C192.811 33.8338 197.433 32.4231 200.925 33.4357C204.473 34.3488 206.366 37.6884 206.605 43.4544L194.304 51.6551C194.248 49.4226 193.465 48.0854 191.953 47.6433C190.497 47.1017 188.517 47.6651 186.014 49.3337C183.831 50.7892 182.058 52.6326 180.697 54.8638C179.389 57.0594 178.707 59.437 178.65 61.9963C178.61 63.7879 179.056 64.972 179.988 65.5487C180.974 66.0259 182.177 66.1691 183.598 65.9784C185.073 65.6882 187.132 65.1355 189.773 64.3202C193.366 63.1859 196.293 62.4952 198.554 62.2484C200.815 62.0015 202.743 62.6075 204.337 64.0664C205.931 65.5252 206.681 68.3341 206.589 72.4931C206.509 76.0762 205.663 79.9182 204.051 84.0189C202.438 88.1197 200.12 92.0919 197.097 95.9355C194.075 99.7151 190.514 102.972 186.414 105.705Z" fill="#FF6B6B" fill-opacity="0.8"/>
<path d="M49.8908 33.3714L51.5269 34.5183L47.4894 37.6831L61.2629 47.339L59.3292 48.8548L45.5557 39.1989L41.497 42.3803L39.861 41.2334L49.8908 33.3714Z" fill="white"/>
<path d="M71.7836 29.4078C72.1668 29.6765 72.5509 29.9773 72.9358 30.3103L63.6284 37.6059C64.8931 38.3873 66.2186 38.7381 67.6049 38.6582C68.9906 38.5568 70.1935 38.1064 71.2135 37.3069C72.0493 36.6517 72.5445 35.9681 72.699 35.256C72.853 34.5225 72.7043 33.8293 72.253 33.1763L74.3355 31.5439C75.1882 32.6045 75.5155 33.7596 75.3175 35.0091C75.1047 36.2483 74.3042 37.412 72.9158 38.5003C71.8108 39.3664 70.5613 39.9629 69.1671 40.2898C67.7871 40.6055 66.3775 40.627 64.9384 40.3544C63.4845 40.0714 62.1312 39.4908 60.8784 38.6125C59.6256 37.7342 58.7683 36.7757 58.3067 35.7368C57.8451 34.698 57.7958 33.6642 58.1588 32.6355C58.5213 31.5854 59.2692 30.6162 60.4025 29.7278C61.5075 28.8617 62.7355 28.2711 64.0867 27.9561C65.4378 27.6412 66.7822 27.616 68.1198 27.8806C69.4569 28.1238 70.6782 28.6329 71.7836 29.4078ZM69.366 30.6791C68.5996 30.1418 67.7808 29.8097 66.9097 29.6828C66.0237 29.5455 65.1574 29.6009 64.3107 29.8487C63.4635 30.0751 62.6998 30.4549 62.0198 30.9879C61.0424 31.7541 60.5308 32.6366 60.4851 33.6353C60.4537 34.623 60.9632 35.5586 62.0136 36.4423L69.366 30.6791Z" fill="white"/>
<path d="M74.0557 28.2834C72.8029 27.4051 71.9531 26.4517 71.5062 25.4232C71.0445 24.3843 70.9808 23.351 71.3149 22.3231C71.6632 21.284 72.3899 20.3314 73.4948 19.4653C74.9257 18.3437 76.4626 17.6752 78.1056 17.4597C79.7628 17.2331 81.3813 17.4527 82.9611 18.1185L80.8786 19.7508C79.9433 19.3896 78.9716 19.2869 77.9633 19.4425C76.9692 19.587 76.0472 19.9925 75.1972 20.6587C74.0922 21.5249 73.5977 22.5034 73.7136 23.5944C73.8147 24.6751 74.5875 25.7217 76.0319 26.7343C77.4911 27.7572 78.9586 28.2812 80.4345 28.3061C81.9104 28.3311 83.2008 27.9105 84.3058 27.0443C85.1558 26.3781 85.6578 25.6782 85.8118 24.9447C85.9657 24.2112 85.7658 23.4925 85.2118 22.7886L87.2943 21.1563C88.2207 22.2685 88.5923 23.4546 88.409 24.7144C88.2109 25.964 87.4107 27.1384 86.0082 28.2378C84.9032 29.1039 83.6607 29.6949 82.2807 30.0106C80.9148 30.3152 79.5194 30.3257 78.0945 30.0419C76.6695 29.7582 75.3233 29.172 74.0557 28.2834Z" fill="white"/>
<path d="M87.209 8.6825C88.0874 7.99402 89.0797 7.51166 90.1859 7.23541C91.2775 6.94884 92.4122 6.9239 93.59 7.16061C94.782 7.38621 95.938 7.89166 97.0582 8.67694L104.199 13.6831L102.287 15.1822L95.4331 10.3775C94.2245 9.53026 93.0129 9.11211 91.7983 9.12309C90.569 9.12373 89.4514 9.51826 88.4456 10.3067C87.4256 11.1062 86.9427 11.9772 86.9968 12.9197C87.065 13.851 87.7329 14.761 89.0005 15.6496L95.6993 20.3458L93.7656 21.8616L77.4054 10.3923L79.3391 8.87654L85.3084 13.0613C85.0718 12.3275 85.117 11.5808 85.4438 10.8212C85.7848 10.0506 86.3732 9.33766 87.209 8.6825Z" fill="white"/>
<path d="M99.5201 74.7272C98.5426 75.4934 97.4874 76.0579 96.3545 76.4207C95.221 76.762 94.1178 76.8826 93.0449 76.7825C91.9572 76.6721 90.9863 76.328 90.132 75.7502L92.1932 74.1345C92.9862 74.5852 93.8812 74.792 94.8782 74.7546C95.8746 74.6958 96.8544 74.2889 97.8177 73.5338C98.7385 72.812 99.2252 72.0803 99.2777 71.3388C99.3297 70.5759 98.9798 69.9309 98.2281 69.4039C97.6386 68.9906 97.0037 68.777 96.3236 68.7629C95.6434 68.7489 94.9738 68.858 94.3147 69.0901C93.6556 69.3222 92.8189 69.6717 91.8045 70.1386C90.5617 70.7188 89.5101 71.1491 88.6498 71.4295C87.8037 71.6988 86.8881 71.8037 85.903 71.7442C84.9174 71.6633 83.9456 71.287 82.9875 70.6153C82.1474 70.0264 81.6085 69.3436 81.3708 68.5669C81.1331 67.7902 81.2058 66.9892 81.5887 66.1638C81.9858 65.3272 82.666 64.5314 83.6293 63.7763C85.0176 62.6881 86.5121 62.0529 88.1126 61.8707C89.7273 61.6774 91.1882 61.9548 92.4954 62.7029L90.3704 64.3686C89.71 64.0108 88.8967 63.8824 87.9304 63.9833C86.9493 64.0738 86.0267 64.4578 85.1625 65.1351C84.355 65.7681 83.9174 66.4395 83.8495 67.1492C83.767 67.8486 84.1163 68.4721 84.8974 69.0198C85.4575 69.4124 86.0632 69.6161 86.7144 69.6309C87.3798 69.6346 88.0279 69.5315 88.6586 69.3216C89.2888 69.0902 90.1256 68.7407 91.1689 68.2731C92.4264 67.7032 93.4927 67.2832 94.3678 67.0132C95.228 66.7328 96.1581 66.6275 97.1579 66.6973C98.143 66.7568 99.1219 67.1276 100.095 67.8095C100.846 68.3365 101.363 68.9824 101.643 69.7472C101.924 70.512 101.895 71.3333 101.557 72.2111C101.219 73.089 100.54 73.9277 99.5201 74.7272Z" fill="white"/>
<path d="M112.419 64.6823C111.328 65.5373 110.078 66.1338 108.67 66.4718C107.276 66.7986 105.852 66.8313 104.399 66.5697C102.945 66.2868 101.591 65.7061 100.339 64.8279C99.1005 63.9599 98.2649 62.9954 97.8316 61.9343C97.3977 60.8519 97.3764 59.7852 97.7678 58.7343C98.1444 57.673 98.8853 56.7093 99.9902 55.8432C101.095 54.977 102.352 54.375 103.76 54.0371C105.154 53.6888 106.577 53.6454 108.031 53.9069C109.498 54.1574 110.858 54.7217 112.111 55.6C113.364 56.4783 114.2 57.4642 114.62 58.5578C115.039 59.63 115.053 60.7022 114.662 61.7746C114.271 62.8469 113.524 63.8161 112.419 64.6823ZM110.65 63.4424C111.344 62.8982 111.826 62.2686 112.096 61.5535C112.367 60.8383 112.347 60.0987 112.037 59.3347C111.742 58.5596 111.108 57.831 110.135 57.1491C109.162 56.4671 108.152 56.0329 107.106 55.8463C106.06 55.6597 105.077 55.6859 104.158 55.925C103.224 56.1537 102.41 56.5402 101.716 57.0843C101.007 57.6395 100.525 58.2691 100.269 58.9732C100.012 59.6558 100.046 60.3735 100.37 61.1265C100.694 61.8794 101.342 62.5968 102.315 63.2788C103.302 63.9711 104.305 64.4216 105.323 64.6304C106.355 64.8281 107.331 64.8181 108.251 64.6005C109.156 64.3725 109.956 63.9865 110.65 63.4424Z" fill="white"/>
<path d="M106.307 44.8842L122.667 56.3535L120.733 57.8693L104.373 46.4L106.307 44.8842Z" fill="white"/>
<path d="M124.175 37.1815L136.29 45.675L134.356 47.1907L132.566 45.9353C132.816 46.658 132.786 47.4043 132.474 48.1742C132.161 48.9227 131.608 49.6078 130.815 50.2297C129.908 50.9404 128.902 51.4445 127.796 51.7422C126.676 52.0296 125.512 52.066 124.306 51.8515C123.114 51.6259 121.958 51.1204 120.838 50.3352L113.741 45.36L115.654 43.8609L122.485 48.6501C123.679 49.487 124.89 49.9052 126.12 49.9045C127.334 49.8935 128.445 49.4938 129.45 48.7054C130.485 47.8948 130.968 47.0238 130.899 46.0924C130.831 45.1611 130.163 44.2511 128.896 43.3625L122.241 38.6973L124.175 37.1815Z" fill="white"/>
<path d="M131.457 33.9357L138.598 38.9419C139.187 39.3552 139.728 39.5553 140.219 39.5422C140.696 39.5188 141.231 39.2738 141.826 38.8074L143.25 37.6914L144.953 38.8849L143.21 40.2507C142.133 41.0947 141.068 41.5468 140.014 41.6071C138.96 41.6675 137.843 41.2843 136.664 40.4577L129.523 35.4515L128.014 36.6341L126.356 35.4717L127.865 34.2891L124.814 32.1502L126.747 30.6344L129.798 32.7733L132.837 30.3914L134.495 31.5538L131.457 33.9357Z" fill="white"/>
<path d="M134.211 26.3926C133.843 26.6813 133.399 26.8326 132.878 26.8465C132.358 26.8604 131.906 26.733 131.523 26.4643C131.14 26.1957 130.943 25.8684 130.933 25.4826C130.922 25.0967 131.101 24.7594 131.47 24.4707C131.824 24.1931 132.254 24.0529 132.76 24.0501C133.28 24.0362 133.732 24.1636 134.115 24.4322C134.499 24.7009 134.695 25.0281 134.706 25.414C134.73 25.7888 134.565 26.115 134.211 26.3926ZM137.114 27.0391L149.229 35.5326L147.295 37.0483L135.18 28.5548L137.114 27.0391Z" fill="white"/>
<path d="M157.803 29.1077C156.712 29.9628 155.462 30.5593 154.054 30.8972C152.66 31.224 151.236 31.2567 149.783 30.9952C148.329 30.7122 146.975 30.1316 145.723 29.2533C144.485 28.3853 143.649 27.4208 143.216 26.3598C142.782 25.2773 142.76 24.2106 143.152 23.1597C143.528 22.0985 144.269 21.1348 145.374 20.2686C146.479 19.4025 147.736 18.8004 149.144 18.4625C150.538 18.1142 151.961 18.0709 153.415 18.3324C154.882 18.5828 156.242 19.1472 157.495 20.0254C158.748 20.9037 159.584 21.8897 160.004 22.9833C160.423 24.0554 160.437 25.1277 160.046 26.2C159.655 27.2723 158.908 28.2416 157.803 29.1077ZM156.034 27.8678C156.728 27.3237 157.21 26.6941 157.48 25.9789C157.751 25.2638 157.731 24.5242 157.421 23.7602C157.126 22.985 156.492 22.2565 155.519 21.5745C154.546 20.8926 153.536 20.4583 152.49 20.2717C151.444 20.0851 150.461 20.1114 149.542 20.3504C148.608 20.5792 147.794 20.9656 147.1 21.5097C146.391 22.0649 145.909 22.6946 145.653 23.3986C145.396 24.0812 145.43 24.799 145.754 25.5519C146.078 26.3048 146.726 27.0223 147.699 27.7042C148.686 28.3965 149.689 28.8471 150.707 29.0558C151.739 29.2535 152.715 29.2436 153.635 29.0259C154.54 28.798 155.34 28.4119 156.034 27.8678Z" fill="white"/>
<path d="M159.454 9.1989C160.871 8.08845 162.468 7.50413 164.246 7.44595C166.008 7.37743 167.73 7.93214 169.41 9.11007L176.551 14.1163L174.638 15.6154L167.785 10.8107C166.576 9.96338 165.365 9.54523 164.15 9.55621C162.921 9.55685 161.803 9.95139 160.797 10.7398C159.777 11.5393 159.294 12.4103 159.348 13.3528C159.417 14.2842 160.085 15.1941 161.352 16.0828L168.051 20.779L166.117 22.2947L154.002 13.8012L155.936 12.2855L157.66 13.4944C157.424 12.7606 157.462 12.0195 157.774 11.271C158.101 10.5115 158.661 9.82076 159.454 9.1989Z" fill="white"/>
<path d="M37.4331 75.3248V114.013C37.4331 122.461 34.1315 124.484 27.5283 120.082L16.9047 112.999C10.3016 108.597 7 102.172 7 93.7241V55.0361C7 46.5881 10.3016 44.5652 16.9047 48.9673L27.5283 56.0497C34.1315 60.4518 37.4331 66.8768 37.4331 75.3248ZM26.2503 108.094V66.2376C26.2503 65.7257 26.0906 65.1712 25.7711 64.5741C25.5048 64.0126 25.1587 63.5899 24.7327 63.3059L19.7004 59.951C19.2744 59.667 18.9016 59.6105 18.5821 59.7815C18.3159 59.988 18.1828 60.3473 18.1828 60.8593V102.715C18.1828 103.227 18.3159 103.764 18.5821 104.326C18.9016 104.923 19.2744 105.363 19.7004 105.647L24.7327 109.002C25.1587 109.286 25.5048 109.325 25.7711 109.118C26.0906 108.947 26.2503 108.606 26.2503 108.094Z" stroke="#0066FF" stroke-width="4" mask="url(#path-1-outside-1_74_385)"/>
<path d="M95.3536 98.3305V109.179L80.4965 99.2738V155.434L69.3138 147.979V91.8186L54.4567 81.9139V71.0659L95.3536 98.3305Z" stroke="#0066FF" stroke-width="4" mask="url(#path-1-outside-1_74_385)"/>
<path d="M144.477 122.285L122.271 137.089L118.597 152.306L106.855 160.134L126.904 79.6642L139.924 70.9842L159.973 124.722L148.152 132.603L144.477 122.285ZM141.442 113.556L133.374 90.9028L125.307 124.313L141.442 113.556Z" stroke="#0066FF" stroke-width="4" mask="url(#path-1-outside-1_74_385)"/>
<path d="M186.414 105.705C182.526 108.297 179.03 109.84 175.923 110.335C172.87 110.794 170.472 110.124 168.728 108.324C166.984 106.524 166.131 103.594 166.169 99.5342L178.151 91.5465C178.249 94.1913 179 95.8343 180.402 96.4754C181.858 97.0809 183.863 96.5317 186.419 94.8277C189.029 93.0881 191.095 90.9855 192.619 88.5199C194.144 85.9902 194.934 83.5097 194.988 81.0783C195.032 79.0948 194.562 77.8005 193.579 77.1953C192.595 76.5901 191.339 76.4504 189.811 76.7761C188.337 77.0023 186.279 77.555 183.636 78.4343C180.043 79.5687 177.116 80.2913 174.853 80.6021C172.645 80.8135 170.743 80.2217 169.148 78.8269C167.607 77.3325 166.884 74.4739 166.977 70.2509C167.066 66.2839 167.968 62.2785 169.684 58.2347C171.4 54.1909 173.766 50.4071 176.782 46.8835C179.8 43.2958 183.226 40.224 187.06 37.6679C192.811 33.8338 197.433 32.4231 200.925 33.4357C204.473 34.3488 206.366 37.6884 206.605 43.4544L194.304 51.6551C194.248 49.4226 193.465 48.0854 191.953 47.6433C190.497 47.1017 188.517 47.6651 186.014 49.3337C183.831 50.7892 182.058 52.6326 180.697 54.8638C179.389 57.0594 178.707 59.437 178.65 61.9963C178.61 63.7879 179.056 64.972 179.988 65.5487C180.974 66.0259 182.177 66.1691 183.598 65.9784C185.073 65.6882 187.132 65.1355 189.773 64.3202C193.366 63.1859 196.293 62.4952 198.554 62.2484C200.815 62.0015 202.743 62.6075 204.337 64.0664C205.931 65.5252 206.681 68.3341 206.589 72.4931C206.509 76.0762 205.663 79.9182 204.051 84.0189C202.438 88.1197 200.12 92.0919 197.097 95.9355C194.075 99.7151 190.514 102.972 186.414 105.705Z" stroke="#0066FF" stroke-width="4" mask="url(#path-1-outside-1_74_385)"/>
<path d="M49.8908 33.3714L51.5269 34.5183L47.4894 37.6831L61.2629 47.339L59.3292 48.8548L45.5557 39.1989L41.497 42.3803L39.861 41.2334L49.8908 33.3714Z" stroke="#0066FF" stroke-width="4" mask="url(#path-1-outside-1_74_385)"/>
<path d="M71.7836 29.4078C72.1668 29.6765 72.5509 29.9773 72.9358 30.3103L63.6284 37.6059C64.8931 38.3873 66.2186 38.7381 67.6049 38.6582C68.9906 38.5568 70.1935 38.1064 71.2135 37.3069C72.0493 36.6517 72.5445 35.9681 72.699 35.256C72.853 34.5225 72.7043 33.8293 72.253 33.1763L74.3355 31.5439C75.1882 32.6045 75.5155 33.7596 75.3175 35.0091C75.1047 36.2483 74.3042 37.412 72.9158 38.5003C71.8108 39.3664 70.5613 39.9629 69.1671 40.2898C67.7871 40.6055 66.3775 40.627 64.9384 40.3544C63.4845 40.0714 62.1312 39.4908 60.8784 38.6125C59.6256 37.7342 58.7683 36.7757 58.3067 35.7368C57.8451 34.698 57.7958 33.6642 58.1588 32.6355C58.5213 31.5854 59.2692 30.6162 60.4025 29.7278C61.5075 28.8617 62.7355 28.2711 64.0867 27.9561C65.4378 27.6412 66.7822 27.616 68.1198 27.8806C69.4569 28.1238 70.6782 28.6329 71.7836 29.4078ZM69.366 30.6791C68.5996 30.1418 67.7808 29.8097 66.9097 29.6828C66.0237 29.5455 65.1574 29.6009 64.3107 29.8487C63.4635 30.0751 62.6998 30.4549 62.0198 30.9879C61.0424 31.7541 60.5308 32.6366 60.4851 33.6353C60.4537 34.623 60.9632 35.5586 62.0136 36.4423L69.366 30.6791Z" stroke="#0066FF" stroke-width="4" mask="url(#path-1-outside-1_74_385)"/>
<path d="M74.0557 28.2834C72.8029 27.4051 71.9531 26.4517 71.5062 25.4232C71.0445 24.3843 70.9808 23.351 71.3149 22.3231C71.6632 21.284 72.3899 20.3314 73.4948 19.4653C74.9257 18.3437 76.4626 17.6752 78.1056 17.4597C79.7628 17.2331 81.3813 17.4527 82.9611 18.1185L80.8786 19.7508C79.9433 19.3896 78.9716 19.2869 77.9633 19.4425C76.9692 19.587 76.0472 19.9925 75.1972 20.6587C74.0922 21.5249 73.5977 22.5034 73.7136 23.5944C73.8147 24.6751 74.5875 25.7217 76.0319 26.7343C77.4911 27.7572 78.9586 28.2812 80.4345 28.3061C81.9104 28.3311 83.2008 27.9105 84.3058 27.0443C85.1558 26.3781 85.6578 25.6782 85.8118 24.9447C85.9657 24.2112 85.7658 23.4925 85.2118 22.7886L87.2943 21.1563C88.2207 22.2685 88.5923 23.4546 88.409 24.7144C88.2109 25.964 87.4107 27.1384 86.0082 28.2378C84.9032 29.1039 83.6607 29.6949 82.2807 30.0106C80.9148 30.3152 79.5194 30.3257 78.0945 30.0419C76.6695 29.7582 75.3233 29.172 74.0557 28.2834Z" stroke="#0066FF" stroke-width="4" mask="url(#path-1-outside-1_74_385)"/>
<path d="M87.209 8.6825C88.0874 7.99402 89.0797 7.51166 90.1859 7.23541C91.2775 6.94884 92.4122 6.9239 93.59 7.16061C94.782 7.38621 95.938 7.89166 97.0582 8.67694L104.199 13.6831L102.287 15.1822L95.4331 10.3775C94.2245 9.53026 93.0129 9.11211 91.7983 9.12309C90.569 9.12373 89.4514 9.51826 88.4456 10.3067C87.4256 11.1062 86.9427 11.9772 86.9968 12.9197C87.065 13.851 87.7329 14.761 89.0005 15.6496L95.6993 20.3458L93.7656 21.8616L77.4054 10.3923L79.3391 8.87654L85.3084 13.0613C85.0718 12.3275 85.117 11.5808 85.4438 10.8212C85.7848 10.0506 86.3732 9.33766 87.209 8.6825Z" stroke="#0066FF" stroke-width="4" mask="url(#path-1-outside-1_74_385)"/>
<path d="M99.5201 74.7272C98.5426 75.4934 97.4874 76.0579 96.3545 76.4207C95.221 76.762 94.1178 76.8826 93.0449 76.7825C91.9572 76.6721 90.9863 76.328 90.132 75.7502L92.1932 74.1345C92.9862 74.5852 93.8812 74.792 94.8782 74.7546C95.8746 74.6958 96.8544 74.2889 97.8177 73.5338C98.7385 72.812 99.2252 72.0803 99.2777 71.3388C99.3297 70.5759 98.9798 69.9309 98.2281 69.4039C97.6386 68.9906 97.0037 68.777 96.3236 68.7629C95.6434 68.7489 94.9738 68.858 94.3147 69.0901C93.6556 69.3222 92.8189 69.6717 91.8045 70.1386C90.5617 70.7188 89.5101 71.1491 88.6498 71.4295C87.8037 71.6988 86.8881 71.8037 85.903 71.7442C84.9174 71.6633 83.9456 71.287 82.9875 70.6153C82.1474 70.0264 81.6085 69.3436 81.3708 68.5669C81.1331 67.7902 81.2058 66.9892 81.5887 66.1638C81.9858 65.3272 82.666 64.5314 83.6293 63.7763C85.0176 62.6881 86.5121 62.0529 88.1126 61.8707C89.7273 61.6774 91.1882 61.9548 92.4954 62.7029L90.3704 64.3686C89.71 64.0108 88.8967 63.8824 87.9304 63.9833C86.9493 64.0738 86.0267 64.4578 85.1625 65.1351C84.355 65.7681 83.9174 66.4395 83.8495 67.1492C83.767 67.8486 84.1163 68.4721 84.8974 69.0198C85.4575 69.4124 86.0632 69.6161 86.7144 69.6309C87.3798 69.6346 88.0279 69.5315 88.6586 69.3216C89.2888 69.0902 90.1256 68.7407 91.1689 68.2731C92.4264 67.7032 93.4927 67.2832 94.3678 67.0132C95.228 66.7328 96.1581 66.6275 97.1579 66.6973C98.143 66.7568 99.1219 67.1276 100.095 67.8095C100.846 68.3365 101.363 68.9824 101.643 69.7472C101.924 70.512 101.895 71.3333 101.557 72.2111C101.219 73.089 100.54 73.9277 99.5201 74.7272Z" stroke="#0066FF" stroke-width="4" mask="url(#path-1-outside-1_74_385)"/>
<path d="M112.419 64.6823C111.328 65.5373 110.078 66.1338 108.67 66.4718C107.276 66.7986 105.852 66.8313 104.399 66.5697C102.945 66.2868 101.591 65.7061 100.339 64.8279C99.1005 63.9599 98.2649 62.9954 97.8316 61.9343C97.3977 60.8519 97.3764 59.7852 97.7678 58.7343C98.1444 57.673 98.8853 56.7093 99.9902 55.8432C101.095 54.977 102.352 54.375 103.76 54.0371C105.154 53.6888 106.577 53.6454 108.031 53.9069C109.498 54.1574 110.858 54.7217 112.111 55.6C113.364 56.4783 114.2 57.4642 114.62 58.5578C115.039 59.63 115.053 60.7022 114.662 61.7746C114.271 62.8469 113.524 63.8161 112.419 64.6823ZM110.65 63.4424C111.344 62.8982 111.826 62.2686 112.096 61.5535C112.367 60.8383 112.347 60.0987 112.037 59.3347C111.742 58.5596 111.108 57.831 110.135 57.1491C109.162 56.4671 108.152 56.0329 107.106 55.8463C106.06 55.6597 105.077 55.6859 104.158 55.925C103.224 56.1537 102.41 56.5402 101.716 57.0843C101.007 57.6395 100.525 58.2691 100.269 58.9732C100.012 59.6558 100.046 60.3735 100.37 61.1265C100.694 61.8794 101.342 62.5968 102.315 63.2788C103.302 63.9711 104.305 64.4216 105.323 64.6304C106.355 64.8281 107.331 64.8181 108.251 64.6005C109.156 64.3725 109.956 63.9865 110.65 63.4424Z" stroke="#0066FF" stroke-width="4" mask="url(#path-1-outside-1_74_385)"/>
<path d="M106.307 44.8842L122.667 56.3535L120.733 57.8693L104.373 46.4L106.307 44.8842Z" stroke="#0066FF" stroke-width="4" mask="url(#path-1-outside-1_74_385)"/>
<path d="M124.175 37.1815L136.29 45.675L134.356 47.1907L132.566 45.9353C132.816 46.658 132.786 47.4043 132.474 48.1742C132.161 48.9227 131.608 49.6078 130.815 50.2297C129.908 50.9404 128.902 51.4445 127.796 51.7422C126.676 52.0296 125.512 52.066 124.306 51.8515C123.114 51.6259 121.958 51.1204 120.838 50.3352L113.741 45.36L115.654 43.8609L122.485 48.6501C123.679 49.487 124.89 49.9052 126.12 49.9045C127.334 49.8935 128.445 49.4938 129.45 48.7054C130.485 47.8948 130.968 47.0238 130.899 46.0924C130.831 45.1611 130.163 44.2511 128.896 43.3625L122.241 38.6973L124.175 37.1815Z" stroke="#0066FF" stroke-width="4" mask="url(#path-1-outside-1_74_385)"/>
<path d="M131.457 33.9357L138.598 38.9419C139.187 39.3552 139.728 39.5553 140.219 39.5422C140.696 39.5188 141.231 39.2738 141.826 38.8074L143.25 37.6914L144.953 38.8849L143.21 40.2507C142.133 41.0947 141.068 41.5468 140.014 41.6071C138.96 41.6675 137.843 41.2843 136.664 40.4577L129.523 35.4515L128.014 36.6341L126.356 35.4717L127.865 34.2891L124.814 32.1502L126.747 30.6344L129.798 32.7733L132.837 30.3914L134.495 31.5538L131.457 33.9357Z" stroke="#0066FF" stroke-width="4" mask="url(#path-1-outside-1_74_385)"/>
<path d="M134.211 26.3926C133.843 26.6813 133.399 26.8326 132.878 26.8465C132.358 26.8604 131.906 26.733 131.523 26.4643C131.14 26.1957 130.943 25.8684 130.933 25.4826C130.922 25.0967 131.101 24.7594 131.47 24.4707C131.824 24.1931 132.254 24.0529 132.76 24.0501C133.28 24.0362 133.732 24.1636 134.115 24.4322C134.499 24.7009 134.695 25.0281 134.706 25.414C134.73 25.7888 134.565 26.115 134.211 26.3926ZM137.114 27.0391L149.229 35.5326L147.295 37.0483L135.18 28.5548L137.114 27.0391Z" stroke="#0066FF" stroke-width="4" mask="url(#path-1-outside-1_74_385)"/>
<path d="M157.803 29.1077C156.712 29.9628 155.462 30.5593 154.054 30.8972C152.66 31.224 151.236 31.2567 149.783 30.9952C148.329 30.7122 146.975 30.1316 145.723 29.2533C144.485 28.3853 143.649 27.4208 143.216 26.3598C142.782 25.2773 142.76 24.2106 143.152 23.1597C143.528 22.0985 144.269 21.1348 145.374 20.2686C146.479 19.4025 147.736 18.8004 149.144 18.4625C150.538 18.1142 151.961 18.0709 153.415 18.3324C154.882 18.5828 156.242 19.1472 157.495 20.0254C158.748 20.9037 159.584 21.8897 160.004 22.9833C160.423 24.0554 160.437 25.1277 160.046 26.2C159.655 27.2723 158.908 28.2416 157.803 29.1077ZM156.034 27.8678C156.728 27.3237 157.21 26.6941 157.48 25.9789C157.751 25.2638 157.731 24.5242 157.421 23.7602C157.126 22.985 156.492 22.2565 155.519 21.5745C154.546 20.8926 153.536 20.4583 152.49 20.2717C151.444 20.0851 150.461 20.1114 149.542 20.3504C148.608 20.5792 147.794 20.9656 147.1 21.5097C146.391 22.0649 145.909 22.6946 145.653 23.3986C145.396 24.0812 145.43 24.799 145.754 25.5519C146.078 26.3048 146.726 27.0223 147.699 27.7042C148.686 28.3965 149.689 28.8471 150.707 29.0558C151.739 29.2535 152.715 29.2436 153.635 29.0259C154.54 28.798 155.34 28.4119 156.034 27.8678Z" stroke="#0066FF" stroke-width="4" mask="url(#path-1-outside-1_74_385)"/>
<path d="M159.454 9.1989C160.871 8.08845 162.468 7.50413 164.246 7.44595C166.008 7.37743 167.73 7.93214 169.41 9.11007L176.551 14.1163L174.638 15.6154L167.785 10.8107C166.576 9.96338 165.365 9.54523 164.15 9.55621C162.921 9.55685 161.803 9.95139 160.797 10.7398C159.777 11.5393 159.294 12.4103 159.348 13.3528C159.417 14.2842 160.085 15.1941 161.352 16.0828L168.051 20.779L166.117 22.2947L154.002 13.8012L155.936 12.2855L157.66 13.4944C157.424 12.7606 157.462 12.0195 157.774 11.271C158.101 10.5115 158.661 9.82076 159.454 9.1989Z" stroke="#0066FF" stroke-width="4" mask="url(#path-1-outside-1_74_385)"/>
</g>
</g>
<defs>
<filter id="filter0_d_74_385" x="0" y="0" width="213.65" height="169.665" filterUnits="userSpaceOnUse" color-interpolation-filters="sRGB">
<feFlood flood-opacity="0" result="BackgroundImageFix"/>
<feColorMatrix in="SourceAlpha" type="matrix" values="0 0 0 0 0 0 0 0 0 0 0 0 0 0 0 0 0 0 127 0" result="hardAlpha"/>
<feOffset/>
<feGaussianBlur stdDeviation="2.5"/>
<feComposite in2="hardAlpha" operator="out"/>
<feColorMatrix type="matrix" values="0 0 0 0 0 0 0 0 0 0.4 0 0 0 0 1 0 0 0 1 0"/>
<feBlend mode="normal" in2="BackgroundImageFix" result="effect1_dropShadow_74_385"/>
<feBlend mode="normal" in="SourceGraphic" in2="effect1_dropShadow_74_385" result="shape"/>
</filter>
</defs>
</svg>
